<svg width="254" height="54" viewBox="0 0 254 54" fill="none" xmlns="http://www.w3.org/2000/svg">
<path d="M75.1102 24.6784L73.5171 20.8241C72.8464 19.1597 71.2534 19.8605 71.2534 19.1597C71.2534 18.8969 71.3372 18.7217 71.7564 18.7217C73.0979 18.7217 74.6071 18.8093 76.1163 18.8093C77.6255 18.8093 79.0508 18.7217 80.8954 18.7217C81.2308 18.7217 81.3985 18.8969 81.3985 19.2473C81.3985 20.0357 79.2185 19.3349 79.2185 21.1745C79.2185 21.5249 79.3862 22.0505 79.6378 22.6637L82.9915 31.4236L85.5907 24.766C85.8422 24.0652 86.0937 23.1893 86.0937 22.3133C86.0937 19.1597 83.6623 20.1233 83.6623 19.2473C83.6623 18.9845 83.83 18.8093 84.4169 18.8093C85.423 18.8093 86.3453 18.8969 87.1837 18.8969C88.0221 18.8969 89.2798 18.8093 89.9506 18.8093C90.4536 18.8093 90.6213 19.0721 90.6213 19.2473C90.6213 19.9481 88.4414 19.5101 86.6806 24.2404L81.2308 38.344C81.1469 38.6067 80.9793 38.7819 80.7277 38.7819C80.4762 38.7819 80.3085 38.6067 80.2247 38.344L75.3617 25.8172L70.1634 38.344C70.0795 38.6067 69.9119 38.7819 69.6603 38.7819C69.4088 38.7819 69.2411 38.6067 69.1573 38.344L62.5336 20.9993C61.9467 19.4225 60.4375 19.9481 60.4375 19.2473C60.4375 18.9845 60.6052 18.8093 61.0244 18.8093C62.3659 18.8093 63.7913 18.8969 65.2166 18.8969C66.642 18.8969 68.0673 18.8093 69.4926 18.8093C69.9957 18.8093 70.1634 18.9845 70.1634 19.2473C70.1634 19.6853 68.235 19.4225 68.235 21.0869C68.235 21.4373 68.4865 21.9629 68.6542 22.4009L72.008 31.6864L75.1102 24.6784Z" fill="white"/>
<path d="M98.5865 27.4817C98.6703 32.7377 101.856 35.3657 105.294 35.3657C107.809 35.3657 109.151 34.4897 110.325 33.0881C111.163 32.1245 111.163 31.4237 111.498 31.4237C111.582 31.4237 111.75 31.5113 111.75 31.6865C111.75 33.0005 109.822 38.6945 103.03 38.6945C97.4965 38.6945 93.8074 34.5773 93.8074 28.4453C93.8074 22.7514 97.6642 18.459 103.03 18.459C107.642 18.459 111.582 21.525 111.75 27.4817H98.5865ZM106.887 26.5181C106.803 20.8242 105.378 19.2474 103.114 19.2474C100.515 19.2474 98.7542 21.8754 98.6703 26.5181H106.887Z" fill="white"/>
<path d="M119.128 31.0733C119.128 30.8105 119.296 30.7229 119.464 30.7229C119.799 30.7229 119.715 31.1608 120.386 32.65C121.476 35.1028 123.069 37.906 126.506 37.906C129.022 37.906 130.279 36.592 130.279 34.6648C130.279 29.7593 119.212 31.6864 119.212 24.1529C119.212 21.1745 121.811 18.3713 126.339 18.3713C128.77 18.3713 131.286 19.1597 132.459 20.0357V25.0289C132.459 25.2041 132.376 25.2917 132.208 25.2917C131.872 25.2917 131.872 24.5033 131.118 23.1017C130.196 21.2621 128.77 19.1597 125.836 19.1597C124.159 19.1597 122.985 20.0357 122.985 21.7877C122.985 26.0801 134.052 24.4157 134.052 31.5988C134.052 36.154 130.782 38.6068 126.171 38.6068C124.159 38.6068 121.643 38.2564 119.212 37.3804V31.0733H119.128Z" fill="white"/>
<path d="M153.169 18.8093L152.163 20.9117H147.467V33.0004C147.467 35.6284 148.557 36.6796 150.067 36.6796C151.408 36.6796 152.163 36.154 152.917 35.1904C153.253 34.7524 153.336 34.3144 153.588 34.3144C153.756 34.3144 153.84 34.402 153.84 34.6648C153.84 35.278 152.163 38.6943 147.635 38.6943C144.03 38.6943 142.269 36.5044 142.269 33.1756V20.9117H139.67C143.108 18.0209 145.287 15.2177 147.3 11.4509H147.384V18.8969H153.169V18.8093Z" fill="white"/>
<path d="M163.398 22.2258C164.739 19.8606 166.752 18.8094 169.015 18.8094C174.801 18.8094 175.22 24.2405 175.22 26.4305V38.2565H173.124V26.0801C173.124 22.839 171.363 20.9118 168.512 20.9118C164.991 20.9118 163.398 24.0653 163.398 27.3941V38.2565H161.302V11.1882H163.398V22.2258Z" fill="white"/>
<path d="M182.095 29.4089C182.179 33.4385 183.856 36.7673 188.216 36.7673C190.731 36.7673 192.827 34.8401 193.33 32.2997H195.51C194.42 36.7673 191.737 38.8696 187.545 38.8696C182.263 38.8696 179.831 34.0517 179.831 28.8833C179.831 23.8025 182.514 18.897 187.713 18.897C193.666 18.897 195.762 23.5397 195.762 29.4089H182.095ZM193.498 27.3065C193.246 23.6273 191.402 20.9118 187.713 20.9118C184.275 20.9118 182.43 23.9777 182.179 27.3065H193.498Z" fill="white"/>
<path d="M211.357 24.9413C211.105 21.8753 209.68 20.9117 207.164 20.9117C204.984 20.9117 203.14 21.6125 202.805 24.1529H200.541C201.044 20.2985 203.811 18.8093 207.164 18.8093C211.105 18.8093 213.537 20.7365 213.453 25.0289V33.964C213.453 35.4532 213.537 36.9424 213.62 38.1688H211.44L211.357 35.3656H211.273L211.189 35.6284C210.434 37.2052 208.087 38.6944 205.655 38.6944C202.385 38.6944 199.786 36.592 199.786 32.9128C199.786 30.3724 201.211 28.4453 203.308 27.4817C205.655 26.4305 208.757 26.7809 211.273 26.6057V24.9413H211.357ZM206.074 36.7672C210.686 36.7672 211.608 32.7376 211.357 28.7957C208.338 28.8833 202.05 28.2701 202.05 33.0004C202.134 35.5408 203.894 36.7672 206.074 36.7672Z" fill="white"/>
<path d="M221.418 11.1882H219.322V38.2565H221.418V11.1882Z" fill="white"/>
<path d="M229.048 21.4373H225.526V19.335H229.048V15.3054L231.144 14.3418V19.335H235.168V21.4373H231.144V34.0517C231.144 35.8036 231.982 36.6796 233.575 36.6796C234.246 36.6796 234.833 36.6796 235.42 36.4168V38.344C234.749 38.5192 233.994 38.6944 233.24 38.6944C228.796 38.6944 229.048 35.6285 229.048 33.0881V21.4373Z" fill="white"/>
<path d="M242.043 22.2258C243.385 19.8606 245.397 18.8094 247.661 18.8094C253.446 18.8094 253.865 24.2405 253.865 26.4305V38.2565H251.769V26.0801C251.769 22.839 250.009 20.9118 247.158 20.9118C243.636 20.9118 242.043 24.0653 242.043 27.3941V38.2565H239.947V11.1882H242.043V22.2258Z" fill="white"/>
<path d="M46.0164 27.0437C46.0164 40.534 36.2066 51.8343 24.0493 51.8343C22.6239 51.8343 21.2824 51.6591 19.9409 51.3963C22.7916 52.8855 25.9777 53.7615 29.3314 53.7615C41.908 53.7615 52.137 41.5852 52.137 27.0437C52.2208 12.5022 41.9919 0.238281 29.4153 0.238281C26.0615 0.238281 22.8755 1.11428 20.0248 2.60347C21.3663 2.34067 22.7078 2.16547 24.1331 2.16547C36.2066 2.16547 46.0164 13.5534 46.0164 27.0437Z" fill="#007298"/>
<path d="M4.93285 27.0437C4.93285 16.3566 10.4665 7.24628 18.3479 3.0415C8.11891 5.14389 0.405273 15.1302 0.405273 27.0437C0.405273 38.9573 8.11891 48.856 18.3479 51.046C10.3827 46.8412 4.93285 37.6433 4.93285 27.0437Z" fill="#03818C"/>
<path d="M15.6649 32.9129C12.5627 32.9129 10.0474 30.2849 10.0474 27.0437C10.0474 23.8025 12.5627 21.1746 15.6649 21.1746C18.7671 21.1746 21.2824 23.8025 21.2824 27.0437C21.2824 30.2849 18.7671 32.9129 15.6649 32.9129Z" fill="#03818C"/>
</svg>
